#!OML:ASF H:\BreakDance\Project 1\Capture day 1\Session 1\Male.ASF
:FULLY-SPECIFIED
:DEGREES
2691
root -12.2645 16.238 -10.3522 -4.90303 -464.582 -351.332
lowerback 7.22283 -0.771161 3.16395
upperback 4.15412 -0.9775 0.554318
thorax 0.201327 -0.504708 -1.13702
lowerneck -0.0759137 5.63204 1.17984
upperneck -16.5096 7.07242 -1.50119
head -4.84691 3.29381 -0.928695
rclavicle -3.80238e-014 5.42931e-015
rhumerus -30.7644 43.0124 -94.4861
rradius 31.7762
rwrist -11.3692
rhand 0.586161 -38.1598
rfingers 7.12502
rthumb 26.1517 653.621
lclavicle -3.80238e-014 5.42931e-015
lhumerus -32.8475 -60.8513 109.104
lradius 27.907
lwrist 18.6044
lhand -8.04336 -735.614
lfingers 7.12502
lthumb 17.8671 13.5853
rfemur -28.2368 -8.49059 11.3561
rtibia 51.3158
rfoot -27.4877 -1.64288
rtoes -23.9323
lfemur 691.474 12.0702 696.349
ltibia 60.5503
lfoot -18.1543 5.75698
ltoes -31.7587
2692
root -12.3127 16.2732 -10.2869 -5.10277 -463.165 -351.539
lowerback 6.85515 -0.793547 2.85294
upperback 4.13732 -1.03204 0.615267
thorax 0.389647 -0.532671 -0.901694
lowerneck -0.916153 5.54161 0.872774
upperneck -14.632 7.0045 -1.25375
head -4.59366 3.29677 -0.814147
rclavicle -2.74696e-014 -4.47266e-015
rhumerus -32.2044 41.1875 -94.9295
rradius 31.0932
rwrist -12.821
rhand 2.6596 -38.6952
rfingers 7.12502
rthumb 28.1352 653.396
lclavicle -2.74696e-014 -4.47266e-015
lhumerus -32.4932 -58.2109 108.114
lradius 28.7555
lwrist 19.5516
lhand -8.84797 -735.989
lfingers 7.12502
lthumb 17.0928 13.2792
rfemur -27.4224 -8.94375 12.3275
rtibia 52.9085
rfoot -26.3532 0.436168
rtoes -27.2352
lfemur 691.522 11.3241 696.481
ltibia 61.1109
lfoot -16.1997 3.13062
ltoes -33.2307
2693
root -12.3551 16.305 -10.2243 -3.75347 -461.808 -353.236
lowerback 6.44583 -0.728804 2.27809
upperback 4.07106 -0.978321 0.523176
thorax 0.554938 -0.508828 -0.6832
lowerneck -0.364801 5.14881 1.02069
upperneck -14.4229 6.4763 -1.56513
head -4.61296 3.05853 -0.94006
rclavicle -2.64011e-014 3.97569e-016
rhumerus -33.3128 38.1434 -95.013
rradius 30.4953
rwrist -14.881
rhand 3.21763 -39.5073
rfingers 7.12502
rthumb 28.6685 652.672
lclavicle -2.64011e-014 3.97569e-016
lhumerus -32.6399 -56.0566 107.4
lradius 29.8636
lwrist 20.0989
lhand -9.66665 -736.206
lfingers 7.12502
lthumb 16.3046 13.1285
rfemur -26.6357 -9.24526 12.9623
rtibia 54.475
rfoot -25.1665 2.9052
rtoes -28.5683
lfemur 691.386 11.0607 696.449
ltibia 61.7121
lfoot -13.3717 0.37213
ltoes -34.1538
2694
root -12.4021 16.3147 -10.1727 -2.22585 -460.714 -355.197
lowerback 6.01232 -0.609443 1.53102
upperback 4.05334 -0.858594 0.419499
thorax 0.786951 -0.456149 -0.38363
lowerneck -0.167027 4.85584 1.08273
upperneck -13.9337 6.10861 -1.61689
head -4.47255 2.89385 -0.950318
rclavicle -2.75565e-014 9.93923e-017
rhumerus -34.2446 34.8502 -94.9563
rradius 30.0494
rwrist -17.2604
rhand 1.7733 -39.8239
rfingers 7.12502
rthumb 27.2878 652.131
lclavicle -2.75565e-014 9.93923e-017
lhumerus -32.877 -53.647 106.411
lradius 31.1937
lwrist 19.6551
lhand -10.6169 -736.412
lfingers 7.12502
lthumb 15.3895 12.9949
rfemur -25.5263 -9.16456 13.5676
rtibia 55.8695
rfoot -23.7737 6.12703
rtoes -26.7274
lfemur 691.265 11.3715 696.691
ltibia 62.3777
lfoot -10.4415 -3.48178
ltoes -34.9395
2695
root -12.4563 16.3276 -10.1226 -1.09091 -459.745 -356.791
lowerback 5.60876 -0.425324 0.970708
upperback 4.06234 -0.638735 0.24514
thorax 1.02674 -0.351055 -0.26406
lowerneck -0.492559 4.60627 1.0099
upperneck -13.0332 5.834 -1.2853
head -4.09861 2.76743 -0.788108
rclavicle 5.27401e-015 -3.18055e-015
rhumerus -34.9493 31.3398 -94.8034
rradius 29.6264
rwrist -19.309
rhand -0.622868 -39.6358
rfingers 7.12502
rthumb 24.9936 651.979
lclavicle 5.27401e-015 -3.18055e-015
lhumerus -33.5249 -51.8672 105.479
lradius 32.9051
lwrist 19.0059
lhand -11.5468 -736.473
lfingers 7.12502
lthumb 14.4937 13.0007
rfemur -24.4238 -9.27677 14.2828
rtibia 56.9968
rfoot -21.667 9.47494
rtoes -25.7384
lfemur 691.199 11.9885 697.208
ltibia 63.0107
lfoot -7.58331 -8.18002
ltoes -34.6291
2696
root -12.5107 16.3499 -10.0646 -0.152212 -458.695 -357.95
lowerback 5.00398 -0.262291 0.682305
upperback 4.07101 -0.431036 0.0405518
thorax 1.37423 -0.246167 -0.325915
lowerneck -0.519952 4.22332 1.05556
upperneck -12.5305 5.36704 -1.02443
head -3.92512 2.53641 -0.684888
rclavicle -7.18265e-015 -2.30466e-015
rhumerus -35.5666 27.9216 -94.5834
rradius 29.38
rwrist -20.8532
rhand -2.92783 -39.3553
rfingers 7.12502
rthumb 22.7832 651.97
lclavicle -7.18265e-015 -2.30466e-015
lhumerus -34.483 -51.2112 104.754
lradius 34.8877
lwrist 18.6225
lhand -12.6437 -736.522
lfingers 7.12502
lthumb 13.4366 13.0248
rfemur -23.6344 -9.93676 15.0891
rtibia 57.7769
rfoot -18.7209 12.896
rtoes -26.3142
lfemur 690.913 12.6839 697.825
ltibia 63.5817
lfoot -5.26722 -12.9637
ltoes -34.5081
2697
root -12.5719 16.3639 -10.0065 -0.174532 -457.483 -358.026
lowerback 4.22118 -0.174685 0.631911
upperback 4.11226 -0.313629 -0.124749
thorax 1.85352 -0.181673 -0.475514
lowerneck -0.882948 3.83724 0.801156
upperneck -11.8428 4.90839 -0.464823
head -3.63934 2.31173 -0.423948
rclavicle 3.72721e-015 -6.26172e-015
rhumerus -36.2955 24.6452 -94.3921
rradius 29.3757
rwrist -21.4568
rhand -4.89603 -39.2927
rfingers 7.12502
rthumb 20.8933 651.812
lclavicle 3.72721e-015 -6.26172e-015
lhumerus -35.4717 -51.0693 104.043
lradius 36.9259
lwrist 18.1338
lhand -13.7046 -736.559
lfingers 7.12502
lthumb 12.414 13.0524
rfemur -22.8935 -10.8566 15.9899
rtibia 58.115
rfoot -15.0013 16.6063
rtoes -24.3975
lfemur 690.475 13.3662 698.642
ltibia 64.2013
lfoot -3.7291 -17.7416
ltoes -35.4374
2698
root -12.6383 16.3838 -9.95341 1.04012 -456.088 -359.319
lowerback 3.59288 -0.1224 0.417365
upperback 4.03114 -0.239178 -0.34142
thorax 2.12142 -0.141823 -0.581551
lowerneck -1.30149 3.45098 0.463417
upperneck -10.9726 4.46107 0.249202
head -3.28647 2.09459 -0.102635
rclavicle -1.23495e-014 5.1684e-015
rhumerus -37.3557 21.4175 -94.3452
rradius 29.578
rwrist -21.2634
rhand -6.81844 -39.3996
rfingers 7.12502
rthumb 19.0454 651.513
lclavicle -1.23495e-014 5.1684e-015
lhumerus -36.555 -50.9549 103.365
lradius 38.954
lwrist 17.3614
lhand -14.3026 -736.555
lfingers 7.12502
lthumb 11.8373 13.09
rfemur -22.0443 -11.8835 16.6585
rtibia 57.8729
rfoot -10.4378 20.3697
rtoes -15.4361
lfemur 690.02 13.8429 699.346
ltibia 64.822
lfoot -2.55728 -21.8186
ltoes -36.6632
2699
root -12.6989 16.378 -9.90714 2.52845 -454.723 -360.923
lowerback 3.25318 -0.102253 -0.0643565
upperback 3.81564 -0.208242 -0.464667
thorax 2.09024 -0.132254 -0.438964
lowerneck -1.45701 3.10244 0.248033
upperneck -10.1983 4.04422 0.715673
head -3.00765 1.89655 0.103958
rclavicle 5.01931e-015 3.97569e-015
rhumerus -38.6678 18.804 -94.4582
rradius 29.9794
rwrist -21.2379
rhand -8.51658 -39.826
rfingers 7.12502
rthumb 17.4117 650.934
lclavicle 5.01931e-015 3.97569e-015
lhumerus -37.7498 -50.5249 102.619
lradius 41.1118
lwrist 16.3535
lhand -14.4635 -736.706
lfingers 7.12502
lthumb 11.6822 12.9486
rfemur -21.095 -12.4533 17.4402
rtibia 57.1795
rfoot -5.24118 23.6464
rtoes 4.13178
lfemur 689.52 14.2351 700.225
ltibia 65.6293
lfoot -1.49554 -24.1577
ltoes -37.2823
